PathFileType	4	(X/Y/Z)	Patient4_TMGait_0pt8_01_left_10.trc.trc
DataRate	CameraRate	NumFrames	NumMarkers	Units	OrigDataRate	OrigDataStartFrame	OrigNumFrames
89.743589743590	89.743589743590	6	33	mm	89.743589743590	1	       141
Frame#	Time	Sacral			L.Shoulder			Chest			R.Shoulder			Neck			R.ASIS			L.ASIS			R.Thigh.Superior			R.Thigh.Lateral			R.Thigh.Inferior			R.Patella			L.Thigh.Superior			L.Thigh.Lateral			L.Thigh.Inferior			L.Patella			L.Shank.Superior			L.Shank.Lateral			L.Shank.Inferior			R.Shank.Superior			R.Shank.Lateral			R.Shank.Inferior			R.Heel			R.Midfoot.Superior			R.Midfoot.Lateral			R.Toe			L.Heel			L.Midfoot.Lateral			L.Midfoot.Superior			L.Toe			L.Elbow			L.Wrist			R.Elbow			R.Wrist			
		X1	Y1	Z1	X2	Y2	Z2	X3	Y3	Z3	X4	Y4	Z4	X5	Y5	Z5	X6	Y6	Z6	X7	Y7	Z7	X8	Y8	Z8	X9	Y9	Z9	X10	Y10	Z10	X11	Y11	Z11	X12	Y12	Z12	X13	Y13	Z13	X14	Y14	Z14	X15	Y15	Z15	X16	Y16	Z16	X17	Y17	Z17	X18	Y18	Z18	X19	Y19	Z19	X20	Y20	Z20	X21	Y21	Z21	X22	Y22	Z22	X23	Y23	Z23	X24	Y24	Z24	X25	Y25	Z25	X26	Y26	Z26	X27	Y27	Z27	X28	Y28	Z28	X29	Y29	Z29	X30	Y30	Z30	X31	Y31	Z31	X32	Y32	Z32	X33	Y33	Z33	

1	10.380000000000	873.539802231697	1007.242296627280	534.171674124174	1037.960379049226	1429.775120396082	333.308677763492	1151.094487858263	1365.219608577012	490.161155402549	1078.690522195917	1443.008635568253	667.288920617491	1034.648725470674	1496.287338223584	488.239558497004	1103.619296396462	949.207338982010	645.120670284230	1080.332785232776	960.886648351088	371.059089020364	1138.722146378716	744.696971346003	621.754216589123	1051.138742423447	636.820491730559	677.363451932872	1130.350584054429	583.136437320063	601.487276317491	1127.241086342050	495.472272720308	606.817196203629	1165.484800487095	780.641702411441	394.518663997362	1116.662808437655	655.869004405782	312.426883811602	1224.893643372511	591.835139682859	365.410592342091	1237.281083504089	501.670622302275	355.415369440460	1167.730008452563	435.694955048005	348.227583560127	1022.919662563237	401.068632807728	302.763837598996	1007.729102084571	270.034488830906	352.286377455060	1099.845107028924	407.475040652381	609.702961247340	1024.632175474170	302.278228692041	663.393279717619	1071.844498209860	208.969199090098	600.968319149996	940.605855198469	45.206385260840	556.993888981811	1110.724052852790	98.181510498459	604.742275886285	1019.542100215985	37.686225068904	636.278095712972	1228.312852289059	42.183316954256	637.984260809009	816.888042681451	214.872428431216	396.288815841937	867.001960060999	168.004470950178	311.592814158529	973.403806908788	166.984042411616	328.398361258847	1040.511430361571	50.382853715531	291.915359755507	1021.438404938848	1070.541716756837	237.768706836089	1203.067027558471	881.085931611085	244.609668599722	1053.540078598348	1095.950622932888	796.311656615229	1175.405686707472	865.274170930845	791.049538224453	
2	10.391142857143	872.161303340287	1007.889531192496	535.477154564827	1036.057199435262	1429.891029845434	334.130850381626	1150.001658776052	1365.303143541208	490.353605483977	1078.780223541748	1443.131316320823	667.930175532398	1033.832381675162	1496.529110021791	489.086270243622	1102.606091841831	949.370276726327	645.586075188512	1078.404617054929	961.226745611473	371.502678044488	1134.952969886970	744.254397728642	621.789464366248	1046.159679643006	637.088097925041	677.881659540022	1124.180426819566	582.557222350655	601.869364679714	1119.878263356472	495.178537642865	607.099133396384	1165.422241945417	784.036690143000	395.225302588663	1118.304863054660	658.028943465269	312.714606567768	1228.208782278079	596.452364264679	365.366209338651	1242.633392346175	507.109237315616	355.136060056082	1176.134972601746	439.080687444448	347.908497187736	1033.429593057169	397.422235272542	303.110325095050	1025.373250257427	265.816884317843	352.079884962405	1092.139255895786	407.333057501820	609.911499838786	1016.400473845787	302.520401130259	663.759858777248	1063.272458090883	208.975821045526	601.196734884075	931.238715959030	45.370433684082	556.983533566838	1101.390758061538	98.036389169919	604.648802271006	1010.212616696723	37.715112402913	636.363557591692	1218.947287767739	41.972017944119	638.043877416242	838.633045693770	200.372428195620	396.696790795856	890.522143848040	157.155181967842	311.422359852760	996.518243727482	161.987954330024	327.776033700428	1069.510216103348	50.193994885383	290.013933641563	1014.654869188179	1070.492522373213	239.831757878960	1180.406209517711	869.558665300967	247.223984198111	1064.980947954083	1096.435875915995	798.130648057878	1199.180775708404	874.372244550366	789.992879697983	
3	10.402285714286	870.806739235800	1008.496004896667	536.734318142483	1034.201370715431	1429.993783221675	334.928643967486	1148.927674877023	1365.369127486383	490.538465984925	1078.849050097172	1443.223234281610	668.555508171442	1033.029996096530	1496.745007846853	489.911513372401	1101.591875038261	949.510476665698	646.026426179098	1076.514658531292	961.524653991468	371.922888996789	1131.241505200074	743.801723888699	621.820711396818	1041.245773714452	637.335899728665	678.377126233950	1118.102171851704	581.967508410428	602.241413718053	1112.620804472826	494.878188827368	607.370397286878	1165.297877719467	787.277845010908	395.901026034709	1119.845129776244	660.062115045025	313.019736777256	1231.328112733934	600.874034255531	365.350671370588	1247.729833571176	512.379220044745	354.886357588689	1184.296933169784	442.350752226593	347.606548985712	1043.786454663694	393.661818057717	303.429002371688	1042.878581505027	261.570172067992	351.833687515808	1084.536724532032	407.185810457902	610.113755648558	1008.286016956493	302.751788923352	664.111157879130	1054.811020271665	208.978450604666	601.415665165761	921.999738320694	45.533520054822	556.981321130858	1092.190771701087	97.906885106231	604.574464565107	1001.005379127145	37.742711491868	636.441127671744	1209.702442230219	41.765661924921	638.101004673896	860.360225829834	185.902446222187	397.028985646216	913.966449547954	146.334679103812	311.183140360250	1019.492634590381	156.985737232772	327.112523842591	1098.292069755077	50.026326665426	288.084359205362	1007.951024418346	1070.451057416951	241.828329391683	1157.962500779740	858.458984755559	249.774190942651	1076.250486381433	1096.951951910352	799.874602960842	1222.582700114662	883.532796776751	788.870699089195	
4	10.413428571429	869.493582268269	1009.022646971334	537.891673032441	1032.439697130380	1430.062523766379	335.671835311180	1147.891520030476	1365.387905658614	490.700378816812	1078.881684132520	1443.246702147967	669.140656564828	1032.253529218949	1496.900211525283	490.688452197913	1100.568026353589	949.593403403244	646.418682304281	1074.689377827441	961.727070242580	372.289688986249	1127.593599679250	743.305894095936	621.847093029685	1036.385004085124	637.544011866009	678.826462777562	1112.114452317507	581.343510108038	602.593232672846	1105.470178100717	494.555598225222	607.618312395984	1165.015935501610	790.182737381383	396.515114558295	1121.158022518708	661.839642593250	313.330842637999	1234.009851597627	604.875473509497	365.397695943770	1252.288933750374	517.314806102480	354.713225238772	1191.991084372845	445.412417457400	347.350798764770	1053.964291996674	389.654588966485	303.670731586108	1060.285353242819	257.302346123549	351.517005732849	1077.032046618405	407.025521481707	610.302829728854	1000.289443601951	302.962251918551	664.430210829909	1046.454626674461	208.971131211133	601.615907386379	912.897436025539	45.688338159206	556.994351974996	1083.132956440460	97.801600296770	604.529807455675	991.923287872373	37.765655145346	636.504539545870	1200.581892785028	41.572198711508	638.155299299679	882.335451509562	171.479011902311	397.191158550091	937.582870296643	135.579015020980	310.816984540533	1042.461034025459	152.029516699986	326.385990188772	1126.950284904994	50.029502707185	286.183751439817	1001.309879048980	1070.445666645328	243.697404659697	1135.746417255379	848.196732307697	252.218030474822	1087.271026829456	1097.548508892275	801.454516499373	1245.398049135590	893.014547726314	787.572696187465	
5	10.424571428571	868.234683569542	1009.440979673641	538.906362645750	1030.811655452953	1430.078620591237	336.333397561134	1146.910418849137	1365.332851211061	490.824182342242	1078.869387591766	1443.171463915088	669.662350767622	1031.513583393390	1496.965286373938	491.392509487177	1099.527954697569	949.589297624163	646.743605269834	1072.948224191764	961.788391125450	372.577713016679	1124.002994087333	742.734014514869	621.872293246544	1031.549230487729	637.697351625340	679.212680478547	1106.194410656394	580.663439696378	602.919324328062	1098.403537198286	494.195613613771	607.833506495214	1164.493517240281	792.595394502075	397.044295268487	1122.144496454924	663.267399914003	313.622441300778	1236.042782596097	608.261957881947	365.537391102035	1256.074703767608	521.776710293680	354.658911238586	1199.033023375957	448.197405219568	347.171998054905	1063.973472621295	385.302345419979	303.785229785093	1077.656322496581	253.046587258696	351.110649846517	1069.595212377054	406.845213218161	610.472415515981	992.384245152131	303.143526281036	664.703135883490	1038.174491580709	208.948003659463	601.789829799538	903.913210052872	45.824683698852	557.026762645305	1074.198706822756	97.725757977686	604.521670955247	982.944567787274	37.780281964039	636.549439627039	1191.565384700852	41.399531511282	638.208439187738	904.824375564000	157.149411468560	397.095172088503	961.640610107712	124.948443179899	310.279797674231	1065.586673103380	147.197249130708	325.590487390394	1155.618857797419	50.371124833285	284.401934795149	994.692335713376	1070.505419101104	245.391464162416	1113.751053924361	839.099423444509	254.525735046711	1097.992889299562	1098.270411513950	802.794976451132	1267.471149636699	903.065702362604	786.001135672450	
6	10.435714285714	867.039323560553	1009.735041061293	539.746823703276	1029.348375179428	1430.027026249909	336.890564652304	1145.999958661734	1365.182423908672	490.895668492109	1078.811302230391	1442.977547703334	670.099111709525	1030.819566552305	1496.918405059724	492.002256727658	1098.469244256881	949.475004218638	646.987165465581	1071.304718075753	961.675295551641	372.767616971052	1120.455827578444	742.056643952266	621.903459735533	1026.702862202979	637.786716347473	679.525880926679	1100.306575796542	579.910432426706	603.217482714599	1091.384635298737	493.785234478428	608.009751276687	1163.667229136229	794.396404993376	397.473897835440	1122.735997348825	664.293332409763	313.856338009125	1237.264388711155	610.882716377726	365.792346557469	1258.914695396233	525.659136230771	354.757431935896	1205.286157148768	450.665350921767	347.099758483620	1073.844445993571	380.561941980300	303.726487702749	1095.041397409896	248.869738718468	350.611414445108	1062.184125666496	406.640539352336	610.617833148327	984.528701284981	303.289847103551	664.919791775099	1029.930977536355	208.904087580775	601.932144123464	895.014134598011	45.930487727262	557.079517159983	1065.353950309676	97.680054022603	604.551456769717	974.035674033628	37.782933215093	636.573746932061	1182.621697729783	41.255101621783	638.263625864795	928.028113742029	143.016319769755	396.670489249375	986.364381377174	114.543903028164	309.550281149402	1089.007590052697	142.598148227227	324.740317062780	1184.412054987690	51.225035539933	282.859958441106	988.049986270298	1070.658446494825	246.878233907928	1091.984455047395	831.392820990076	256.679828919388	1108.383666703239	1099.152025759486	803.838701371432	1288.684793244974	913.888152870801	784.082317809787	
